Comme-Regular.ufo
<glyph name="plus" format="1">
  <advance width="1141"/>
  <unicode hex="002B"/>
  <outline>
    <contour>
      <point x="475" y="228" type="line"/>
      <point x="654" y="228" type="line"/>
      <point x="654" y="612" type="line"/>
      <point x="1009" y="612" type="line"/>
      <point x="1009" y="785" type="line"/>
      <point x="654" y="785" type="line"/>
      <point x="654" y="1163" type="line"/>
      <point x="476" y="1163" type="line"/>
      <point x="476" y="785" type="line"/>
      <point x="117" y="785" type="line"/>
      <point x="117" y="612" type="line"/>
      <point x="475" y="612" type="line"/>
    </contour>
  </outline>
</glyph>
<glyph name="less" format="1">
  <advance width="1107"/>
  <unicode hex="003C"/>
  <outline>
    <contour>
      <point x="1009" y="140" type="line"/>
      <point x="1009" y="295" type="line"/>
      <point x="277" y="648" type="line"/>
      <point x="1009" y="1028" type="line"/>
      <point x="1009" y="1180" type="line"/>
      <point x="78" y="690" type="line"/>
      <point x="78" y="597" type="line"/>
    </contour>
  </outline>
</glyph>
<glyph name="Q" format="1">
  <advance width="1597"/>
  <unicode hex="0051"/>
  <outline>
    <contour>
      <point x="1165" y="-441" type="curve"/>
      <point x="1290" y="-351" type="line"/>
      <point x="1162" y="-227"/>
      <point x="1034" y="-43"/>
      <point x="990" y="66" type="curve"/>
      <point x="824" y="38" type="line"/>
      <point x="884" y="-91"/>
      <point x="1047" y="-330"/>
    </contour>
    <component base="O"/>
  </outline>
</glyph>
<glyph name="backslash" format="1">
  <advance width="937"/>
  <unicode hex="005C"/>
  <outline>
    <contour>
      <point x="634" y="-17" type="line"/>
      <point x="776" y="-17" type="line"/>
      <point x="239" y="1479" type="line"/>
      <point x="97" y="1479" type="line"/>
    </contour>
  </outline>
</glyph>
<glyph name="g" format="1">
  <advance width="1206"/>
  <unicode hex="0067"/>
  <outline>
    <contour>
      <point x="527" y="-488" type="curve" smooth="yes"/>
      <point x="851" y="-488"/>
      <point x="1046" y="-341"/>
      <point x="1046" y="23" type="curve" smooth="yes"/>
      <point x="1046" y="1082" type="line"/>
      <point x="891" y="1082" type="line"/>
      <point x="883" y="972" type="line"/>
      <point x="821" y="1048"/>
      <point x="722" y="1106"/>
      <point x="585" y="1106" type="curve" smooth="yes"/>
      <point x="297" y="1106"/>
      <point x="113" y="889"/>
      <point x="113" y="546" type="curve" smooth="yes"/>
      <point x="113" y="198"/>
      <point x="285" y="-18"/>
      <point x="581" y="-18" type="curve" smooth="yes"/>
      <point x="678" y="-18"/>
      <point x="793" y="8"/>
      <point x="874" y="93" type="curve"/>
      <point x="874" y="93"/>
      <point x="875" y="-25"/>
      <point x="875" y="-25" type="curve" smooth="yes"/>
      <point x="875" y="-278"/>
      <point x="722" y="-344"/>
      <point x="527" y="-344" type="curve" smooth="yes"/>
      <point x="445" y="-344"/>
      <point x="356" y="-332"/>
      <point x="267" y="-318" type="curve"/>
      <point x="250" y="-460" type="line"/>
      <point x="350" y="-478"/>
      <point x="443" y="-488"/>
    </contour>
    <contour>
      <point x="598" y="115" type="curve" smooth="yes"/>
      <point x="394" y="115"/>
      <point x="299" y="276"/>
      <point x="299" y="547" type="curve" smooth="yes"/>
      <point x="299" y="811"/>
      <point x="399" y="970"/>
      <point x="596" y="970" type="curve" smooth="yes"/>
      <point x="713" y="970"/>
      <point x="805" y="928"/>
      <point x="871" y="836" type="curve"/>
      <point x="871" y="232" type="line"/>
      <point x="814" y="155"/>
      <point x="712" y="115"/>
    </contour>
    <contour>
      <point x="603" y="1082" type="move" name="top"/>
    </contour>
  </outline>
</glyph>
<glyph name="h" format="1">
  <advance width="1216"/>
  <unicode hex="0068"/>
  <outline>
    <contour>
      <point x="168" y="0" type="line"/>
      <point x="349" y="0" type="line"/>
      <point x="349" y="596" type="line" smooth="yes"/>
      <point x="349" y="784"/>
      <point x="424" y="970"/>
      <point x="664" y="970" type="curve" smooth="yes"/>
      <point x="819" y="970"/>
      <point x="878" y="868"/>
      <point x="878" y="661" type="curve" smooth="yes"/>
      <point x="878" y="0" type="line"/>
      <point x="1062" y="0" type="line"/>
      <point x="1062" y="670" type="line" smooth="yes"/>
      <point x="1062" y="947"/>
      <point x="934" y="1106"/>
      <point x="701" y="1106" type="curve" smooth="yes"/>
      <point x="550" y="1106"/>
      <point x="418" y="1049"/>
      <point x="344" y="880" type="curve"/>
      <point x="350" y="1147" type="line"/>
      <point x="350" y="1560" type="line"/>
      <point x="168" y="1540" type="line"/>
    </contour>
    <contour>
      <point x="667" y="1397" type="move" name="top"/>
    </contour>
    <contour>
      <point x="267" y="1281" type="move" name="mid"/>
    </contour>
  </outline>
</glyph>
<glyph name="j" format="1">
  <advance width="587"/>
  <unicode hex="006A"/>
  <outline>
    <contour>
      <point x="48" y="-395" type="line"/>
      <point x="110" y="-385" type="line"/>
      <point x="334" y="-350"/>
      <point x="421" y="-275"/>
      <point x="421" y="-12" type="curve" smooth="yes"/>
      <point x="421" y="1082" type="line"/>
      <point x="239" y="1082" type="line"/>
      <point x="239" y="19" type="line" smooth="yes"/>
      <point x="239" y="-167"/>
      <point x="235" y="-204"/>
      <point x="84" y="-238" type="curve" smooth="yes"/>
      <point x="19" y="-253" type="line"/>
    </contour>
    <component base="dotaccent" xOffset="93"/>
  </outline>
</glyph>
<glyph name="cent" format="1">
  <advance width="1077"/>
  <unicode hex="00A2"/>
  <outline>
    <contour>
      <point x="539" y="-309" type="line"/>
      <point x="655" y="-309" type="line"/>
      <point x="673" y="34" type="line"/>
      <point x="539" y="34" type="line"/>
    </contour>
    <contour>
      <point x="538" y="1060" type="line"/>
      <point x="662" y="1060" type="line"/>
      <point x="664" y="1388" type="line"/>
      <point x="550" y="1388" type="line"/>
    </contour>
    <component base="c"/>
  </outline>
</glyph>
<glyph name="yen" format="1">
  <advance width="1364"/>
  <unicode hex="00A5"/>
  <outline>
    <contour>
      <point x="259" y="256" type="line"/>
      <point x="1081" y="256" type="line"/>
      <point x="1081" y="366" type="line"/>
      <point x="259" y="366" type="line"/>
    </contour>
    <contour>
      <point x="259" y="509" type="line"/>
      <point x="1081" y="509" type="line"/>
      <point x="1081" y="620" type="line"/>
      <point x="259" y="620" type="line"/>
    </contour>
    <component base="Y"/>
  </outline>
</glyph>
<glyph name="brokenbar" format="1">
  <advance width="663"/>
  <unicode hex="00A6"/>
  <outline>
    <contour>
      <point x="267" y="-225" type="line"/>
      <point x="400" y="-225" type="line"/>
      <point x="400" y="531" type="line"/>
      <point x="267" y="531" type="line"/>
    </contour>
    <contour>
      <point x="267" y="819" type="line"/>
      <point x="400" y="819" type="line"/>
      <point x="400" y="1571" type="line"/>
      <point x="267" y="1571" type="line"/>
    </contour>
  </outline>
</glyph>
<glyph name="ordfeminine" format="1">
  <advance width="1120"/>
  <unicode hex="00AA"/>
  <outline>
    <contour>
      <point x="468" y="592" type="curve" smooth="yes"/>
      <point x="596" y="592"/>
      <point x="688" y="635"/>
      <point x="762" y="723" type="curve"/>
      <point x="774" y="609" type="line"/>
      <point x="904" y="609" type="line"/>
      <point x="904" y="1215" type="line" smooth="yes"/>
      <point x="904" y="1467"/>
      <point x="758" y="1560"/>
      <point x="549" y="1560" type="curve" smooth="yes"/>
      <point x="425" y="1560"/>
      <point x="295" y="1532"/>
      <point x="201" y="1472" type="curve"/>
      <point x="246" y="1354" type="line"/>
      <point x="335" y="1414"/>
      <point x="456" y="1441"/>
      <point x="545" y="1441" type="curve" smooth="yes"/>
      <point x="681" y="1441"/>
      <point x="749" y="1378"/>
      <point x="749" y="1228" type="curve" smooth="yes"/>
      <point x="749" y="1121" type="line"/>
      <point x="539" y="1123" type="line" smooth="yes"/>
      <point x="281" y="1123"/>
      <point x="168" y="1027"/>
      <point x="168" y="862" type="curve" smooth="yes"/>
      <point x="168" y="680"/>
      <point x="290" y="592"/>
    </contour>
    <contour>
      <point x="492" y="703" type="curve" smooth="yes"/>
      <point x="394" y="703"/>
      <point x="317" y="743"/>
      <point x="317" y="860" type="curve" smooth="yes"/>
      <point x="317" y="968"/>
      <point x="377" y="1023"/>
      <point x="567" y="1023" type="curve" smooth="yes"/>
      <point x="749" y="1022" type="line"/>
      <point x="749" y="827" type="line"/>
      <point x="691" y="753"/>
      <point x="602" y="703"/>
    </contour>
  </outline>
</glyph>
<glyph name="uni00B5" format="1">
  <advance width="1197"/>
  <unicode hex="00B5"/>
  <outline>
    <contour>
      <point x="1047" y="1082" type="line"/>
      <point x="866" y="1082" type="line"/>
      <point x="866" y="259" type="line"/>
      <point x="825" y="205"/>
      <point x="739" y="113"/>
      <point x="568" y="113" type="curve" smooth="yes"/>
      <point x="398" y="113"/>
      <point x="336" y="221"/>
      <point x="336" y="408" type="curve" smooth="yes"/>
      <point x="336" y="1082" type="line"/>
      <point x="154" y="1082" type="line"/>
      <point x="154" y="-288" type="line"/>
      <point x="336" y="-288" type="line"/>
      <point x="336" y="23" type="line"/>
      <point x="392" y="-6"/>
      <point x="461" y="-20"/>
      <point x="543" y="-20" type="curve" smooth="yes"/>
      <point x="702" y="-20"/>
      <point x="808" y="44"/>
      <point x="880" y="135" type="curve"/>
      <point x="890" y="0" type="line"/>
      <point x="1047" y="0" type="line"/>
    </contour>
    <contour>
      <point x="609" y="1082" type="move" name="top"/>
    </contour>
    <contour>
      <point x="965" y="0" type="move" name="ogonek"/>
    </contour>
    <contour>
      <point x="571" y="0" type="move" name="bot"/>
    </contour>
  </outline>
</glyph>
<glyph name="ordmasculine" format="1">
  <advance width="965"/>
  <unicode hex="00BA"/>
  <outline>
    <contour>
      <point x="480" y="827" type="curve" smooth="yes"/>
      <point x="350" y="827"/>
      <point x="285" y="926"/>
      <point x="285" y="1096" type="curve" smooth="yes"/>
      <point x="285" y="1268"/>
      <point x="351" y="1370"/>
      <point x="480" y="1370" type="curve" smooth="yes"/>
      <point x="613" y="1370"/>
      <point x="683" y="1266"/>
      <point x="683" y="1093" type="curve" smooth="yes"/>
      <point x="683" y="925"/>
      <point x="618" y="827"/>
    </contour>
    <contour>
      <point x="480" y="713" type="curve" smooth="yes"/>
      <point x="688" y="713"/>
      <point x="820" y="880"/>
      <point x="820" y="1096" type="curve" smooth="yes"/>
      <point x="820" y="1322"/>
      <point x="706" y="1484"/>
      <point x="480" y="1484" type="curve" smooth="yes"/>
      <point x="260" y="1484"/>
      <point x="141" y="1319"/>
      <point x="141" y="1096" type="curve" smooth="yes"/>
      <point x="141" y="877"/>
      <point x="260" y="713"/>
    </contour>
  </outline>
</glyph>
<glyph name="thorn" format="1">
  <advance width="1216"/>
  <unicode hex="00FE"/>
  <outline>
    <contour>
      <point x="164" y="-461" type="line"/>
      <point x="339" y="-461" type="line"/>
      <point x="339" y="97" type="line"/>
      <point x="405" y="28"/>
      <point x="506" y="-20"/>
      <point x="637" y="-20" type="curve" smooth="yes"/>
      <point x="932" y="-20"/>
      <point x="1098" y="205"/>
      <point x="1098" y="543" type="curve" smooth="yes"/>
      <point x="1098" y="871"/>
      <point x="965" y="1106"/>
      <point x="671" y="1106" type="curve" smooth="yes"/>
      <point x="546" y="1106"/>
      <point x="412" y="1061"/>
      <point x="339" y="882" type="curve"/>
      <point x="346" y="1109" type="line"/>
      <point x="346" y="1560" type="line"/>
      <point x="164" y="1540" type="line"/>
    </contour>
    <contour>
      <point x="626" y="115" type="curve" smooth="yes"/>
      <point x="507" y="115"/>
      <point x="405" y="159"/>
      <point x="339" y="250" type="curve"/>
      <point x="339" y="559" type="line" smooth="yes"/>
      <point x="339" y="808"/>
      <point x="430" y="970"/>
      <point x="645" y="970" type="curve" smooth="yes"/>
      <point x="848" y="970"/>
      <point x="912" y="792"/>
      <point x="912" y="542" type="curve" smooth="yes"/>
      <point x="912" y="279"/>
      <point x="825" y="115"/>
    </contour>
  </outline>
</glyph>
<glyph name="Eng" format="1">
  <advance width="1517"/>
  <unicode hex="014A"/>
  <outline>
    <contour>
      <point x="1321" y="1456" type="line"/>
      <point x="1146" y="1456" type="line"/>
      <point x="1146" y="668" type="line"/>
      <point x="1157" y="260" type="line"/>
      <point x="397" y="1456" type="line"/>
      <point x="203" y="1456" type="line"/>
      <point x="203" y="0" type="line"/>
      <point x="381" y="0" type="line"/>
      <point x="381" y="740" type="line"/>
      <point x="364" y="1194" type="line"/>
      <point x="1146" y="-2" type="line"/>
      <point x="1148" y="-214"/>
      <point x="1099" y="-293"/>
      <point x="732" y="-293" type="curve"/>
      <point x="734" y="-434" type="line"/>
      <point x="1150" y="-433"/>
      <point x="1321" y="-334"/>
      <point x="1321" y="-5" type="curve" smooth="yes"/>
    </contour>
  </outline>
</glyph>
<glyph name="eng" format="1">
  <advance width="1197"/>
  <unicode hex="014B"/>
  <outline>
    <contour>
      <point x="523" y="1106"/>
      <point x="400" y="1031"/>
      <point x="334" y="871" type="curve"/>
      <point x="315" y="1082" type="line"/>
      <point x="164" y="1082" type="line"/>
      <point x="164" y="0" type="line"/>
      <point x="346" y="0" type="line"/>
      <point x="346" y="612" type="line" smooth="yes"/>
      <point x="346" y="807"/>
      <point x="438" y="970"/>
      <point x="661" y="970" type="curve" smooth="yes"/>
      <point x="824" y="970"/>
      <point x="873" y="848"/>
      <point x="873" y="665" type="curve" smooth="yes"/>
      <point x="873" y="-11" type="line" smooth="yes"/>
      <point x="872" y="-227"/>
      <point x="836" y="-293"/>
      <point x="466" y="-293" type="curve"/>
      <point x="468" y="-434" type="line"/>
      <point x="912" y="-433"/>
      <point x="1054" y="-343"/>
      <point x="1054" y="-14" type="curve" smooth="yes"/>
      <point x="1054" y="652" type="line" smooth="yes"/>
      <point x="1054" y="944"/>
      <point x="943" y="1106"/>
      <point x="699" y="1106" type="curve" smooth="yes"/>
    </contour>
    <contour>
      <point x="696" y="1082" type="move" name="top"/>
    </contour>
    <contour>
      <point x="606" y="0" type="move" name="bot"/>
    </contour>
  </outline>
</glyph>
<glyph name="bullet" format="1">
  <advance width="913"/>
  <unicode hex="2022"/>
  <outline>
    <contour>
      <point x="445" y="407" type="curve" smooth="yes"/>
      <point x="614" y="407"/>
      <point x="767" y="531"/>
      <point x="767" y="741" type="curve" smooth="yes"/>
      <point x="767" y="950"/>
      <point x="618" y="1071"/>
      <point x="451" y="1071" type="curve" smooth="yes"/>
      <point x="282" y="1071"/>
      <point x="130" y="946"/>
      <point x="130" y="736" type="curve" smooth="yes"/>
      <point x="130" y="528"/>
      <point x="278" y="407"/>
    </contour>
  </outline>
</glyph>
<glyph name="guilsinglright" format="1">
  <advance width="766"/>
  <unicode hex="203A"/>
  <outline>
    <contour>
      <point x="154" y="150" type="line"/>
      <point x="317" y="150" type="line"/>
      <point x="609" y="571" type="line"/>
      <point x="314" y="1000" type="line"/>
      <point x="150" y="1000" type="line"/>
      <point x="432" y="571" type="line"/>
    </contour>
  </outline>
</glyph>
<glyph name="estimated" format="1">
  <advance width="1294"/>
  <unicode hex="212E"/>
  <outline>
    <contour>
      <point x="678" y="199" type="curve" smooth="yes"/>
      <point x="885" y="199"/>
      <point x="1020" y="289"/>
      <point x="1119" y="407" type="curve"/>
      <point x="1068" y="458" type="line"/>
      <point x="970" y="353"/>
      <point x="858" y="272"/>
      <point x="678" y="272" type="curve" smooth="yes"/>
      <point x="449" y="272"/>
      <point x="331" y="463"/>
      <point x="330" y="739" type="curve"/>
      <point x="1127" y="739" type="line"/>
      <point x="1127" y="1086"/>
      <point x="980" y="1318"/>
      <point x="660" y="1318" type="curve" smooth="yes"/>
      <point x="338" y="1318"/>
      <point x="109" y="1078"/>
      <point x="109" y="759" type="curve" smooth="yes"/>
      <point x="109" y="440"/>
      <point x="296" y="199"/>
    </contour>
    <contour>
      <point x="332" y="819" type="line"/>
      <point x="347" y="1080"/>
      <point x="494" y="1258"/>
      <point x="666" y="1258" type="curve" smooth="yes"/>
      <point x="875" y="1258"/>
      <point x="1011" y="1053"/>
      <point x="1011" y="819" type="curve"/>
    </contour>
  </outline>
</glyph>
<glyph name="uni2206" format="1">
  <advance width="1283"/>
  <unicode hex="2206"/>
  <outline>
    <contour>
      <point x="66" y="0" type="line"/>
      <point x="1219" y="0" type="line"/>
      <point x="1219" y="85" type="line"/>
      <point x="736" y="1542" type="line"/>
      <point x="549" y="1542" type="line"/>
      <point x="66" y="85" type="line"/>
    </contour>
    <contour>
      <point x="262" y="174" type="line"/>
      <point x="606" y="1196" type="line"/>
      <point x="638" y="1314" type="line"/>
      <point x="672" y="1196" type="line"/>
      <point x="1022" y="174" type="line"/>
    </contour>
  </outline>
</glyph>
<glyph name="summation" format="1">
  <advance width="1064"/>
  <unicode hex="2211"/>
  <outline>
    <contour>
      <point x="65" y="-199" type="line"/>
      <point x="1037" y="-199" type="line"/>
      <point x="1037" y="-37" type="line"/>
      <point x="309" y="-37" type="line"/>
      <point x="783" y="618" type="line"/>
      <point x="330" y="1302" type="line"/>
      <point x="991" y="1302" type="line"/>
      <point x="991" y="1456" type="line"/>
      <point x="86" y="1456" type="line"/>
      <point x="86" y="1349" type="line"/>
      <point x="570" y="622" type="line"/>
      <point x="65" y="-97" type="line"/>
    </contour>
  </outline>
</glyph>
<glyph name="lozenge" format="1">
  <advance width="1169"/>
  <unicode hex="25CA"/>
  <outline>
    <contour>
      <point x="530" y="-47" type="line"/>
      <point x="634" y="-47" type="line"/>
      <point x="1053" y="766" type="line"/>
      <point x="642" y="1579" type="line"/>
      <point x="537" y="1579" type="line"/>
      <point x="120" y="764" type="line"/>
    </contour>
    <contour>
      <point x="585" y="135" type="curve"/>
      <point x="567" y="170"/>
      <point x="289" y="731"/>
      <point x="271" y="766" type="curve"/>
      <point x="290" y="801"/>
      <point x="573" y="1355"/>
      <point x="592" y="1390" type="curve"/>
      <point x="610" y="1355"/>
      <point x="883" y="799"/>
      <point x="901" y="764" type="curve"/>
      <point x="883" y="729"/>
      <point x="604" y="171"/>
    </contour>
  </outline>
</glyph>
<glyph name="caron.alt" format="1">
  <advance width="735"/>
  <outline>
    <contour>
      <point x="462" y="1159" type="line"/>
      <point x="595" y="1159" type="line"/>
      <point x="675" y="1542" type="line"/>
      <point x="497" y="1542" type="line"/>
    </contour>
    <contour>
      <point x="216" y="1082" type="move" name="_caron.alt"/>
    </contour>
  </outline>
</glyph>
<glyph name="middot" format="1">
  <advance width="604"/>
  <outline>
    <component base="period" xOffset="-5" yOffset="513"/>
    <contour>
      <point x="315" y="628" type="move" name="_mid"/>
    </contour>
  </outline>
</glyph>
<glyph name="slashbar" format="1">
  <advance width="854"/>
  <outline>
    <contour>
      <point x="184" y="486" type="line"/>
      <point x="777" y="811" type="line"/>
      <point x="777" y="944" type="line"/>
      <point x="184" y="619" type="line"/>
    </contour>
    <contour>
      <point x="481" y="715" type="move" name="_mid"/>
    </contour>
  </outline>
</glyph>
